<svg width="745" height="745" viewBox="0 0 745 745" fill="none" xmlns="http://www.w3.org/2000/svg">
<path d="M372.5 62.0835C312.294 62.1979 253.42 79.8179 203.051 112.797C152.681 145.777 112.988 192.693 88.8083 247.83C64.6282 302.967 57.0041 363.946 66.8645 423.339C76.7249 482.732 103.644 537.976 144.344 582.342V582.342C173.412 613.851 208.691 638.997 247.959 656.196C287.226 673.396 329.631 682.275 372.5 682.275C415.369 682.275 457.773 673.396 497.041 656.196C536.309 638.997 571.588 613.851 600.656 582.342V582.342C641.356 537.976 668.275 482.732 678.135 423.339C687.996 363.946 680.372 302.967 656.192 247.83C632.012 192.693 592.319 145.777 541.949 112.797C491.579 79.8179 432.706 62.1979 372.5 62.0835V62.0835ZM372.5 620.833C308.196 620.736 246.437 595.698 200.219 550.99C214.251 516.829 238.122 487.612 268.798 467.05C299.474 446.487 335.57 435.509 372.5 435.509C409.43 435.509 445.526 446.487 476.202 467.05C506.878 487.612 530.749 516.829 544.781 550.99C498.563 595.698 436.804 620.736 372.5 620.833ZM310.417 310.417C310.417 298.138 314.058 286.135 320.88 275.925C327.701 265.716 337.397 257.758 348.742 253.059C360.086 248.36 372.569 247.131 384.612 249.526C396.655 251.922 407.717 257.835 416.399 266.517C425.082 275.2 430.995 286.262 433.39 298.305C435.786 310.348 434.556 322.831 429.857 334.175C425.159 345.519 417.201 355.215 406.992 362.037C396.782 368.859 384.779 372.5 372.5 372.5C356.034 372.5 340.243 365.959 328.6 354.316C316.957 342.673 310.417 326.882 310.417 310.417ZM586.998 496.667C559.263 449.228 516.577 412.327 465.625 391.746C481.43 373.824 491.729 351.723 495.284 328.093C498.84 304.464 495.502 280.31 485.67 258.531C475.839 236.751 459.931 218.271 439.857 205.309C419.783 192.346 396.395 185.451 372.5 185.451C348.604 185.451 325.216 192.346 305.142 205.309C285.068 218.271 269.161 236.751 259.33 258.531C249.498 280.31 246.16 304.464 249.716 328.093C253.271 351.723 263.569 373.824 279.375 391.746C228.423 412.327 185.737 449.228 158.002 496.667C135.899 459.016 124.22 416.159 124.167 372.5C124.167 306.638 150.33 243.474 196.902 196.902C243.473 150.33 306.638 124.167 372.5 124.167C438.362 124.167 501.527 150.33 548.098 196.902C594.67 243.474 620.833 306.638 620.833 372.5C620.78 416.159 609.101 459.016 586.998 496.667V496.667Z" fill="#0084FF"/>
</svg>
